<?xml version="1.0" encoding="UTF-8" standalone="no"?>
<!-- Created with Inkscape (http://www.inkscape.org/) -->

<svg
   width="140"
   height="160"
   viewBox="0 0 37.041669 42.333333"
   version="1.1"
   id="svg5"
   xml:space="preserve"
   inkscape:version="1.2.2 (b0a8486541, 2022-12-01)"
   sodipodi:docname="donation.svg"
   inkscape:export-filename="donation.png"
   inkscape:export-xdpi="49.787621"
   inkscape:export-ydpi="49.787621"
   xmlns:inkscape="http://www.inkscape.org/namespaces/inkscape"
   xmlns:sodipodi="http://sodipodi.sourceforge.net/DTD/sodipodi-0.dtd"
   xmlns="http://www.w3.org/2000/svg"
   xmlns:svg="http://www.w3.org/2000/svg"><sodipodi:namedview
     id="namedview7"
     pagecolor="#505050"
     bordercolor="#eeeeee"
     borderopacity="1"
     inkscape:showpageshadow="0"
     inkscape:pageopacity="0"
     inkscape:pagecheckerboard="0"
     inkscape:deskcolor="#505050"
     inkscape:document-units="mm"
     showgrid="false"
     inkscape:zoom="1"
     inkscape:cx="23"
     inkscape:cy="166.5"
     inkscape:window-width="1920"
     inkscape:window-height="2065"
     inkscape:window-x="1920"
     inkscape:window-y="56"
     inkscape:window-maximized="0"
     inkscape:current-layer="layer1" /><defs
     id="defs2" /><g
     inkscape:label="Layer 1"
     inkscape:groupmode="layer"
     id="layer1"
     transform="translate(-89.909508,-80.03078)"><g
       style="fill:#e3e3e3"
       id="g2147"
       transform="matrix(0.00661458,0,0,0.00661458,131.87758,85.305476)" /><rect
       style="fill:#808080;stroke:none;stroke-width:2.40234;-inkscape-stroke:none;stop-color:#000000"
       id="rect3459"
       width="30.180981"
       height="16.786989"
       x="93.339851"
       y="103.54172" /><path
       id="rect3459-3"
       style="fill:#999999;stroke:none;stroke-width:2.53233;stop-color:#000000"
       d="m 98.631523,96.001349 h 19.597637 l 5.29167,7.540381 H 93.339853 Z"
       sodipodi:nodetypes="ccccc" /><g
       style="fill:#f9f9f9;fill-opacity:1"
       id="g2158"
       transform="matrix(0.01055219,0,0,0.01055219,103.36529,117.07414)"><path
         d="m 480,-120 -58,-52 c -67.33333,-60.66667 -123,-113 -167,-157 -44,-44 -79,-83.5 -105,-118.5 -26,-35 -44.16667,-67.16667 -54.5,-96.5 -10.333333,-29.33333 -15.5,-59.33333 -15.5,-90 0,-62.66667 21,-115 63,-157 42,-42 94.33333,-63 157,-63 34.66667,0 67.66667,7.33333 99,22 31.33333,14.66667 58.33333,35.33333 81,62 22.66667,-26.66667 49.66667,-47.33333 81,-62 31.33333,-14.66667 64.33333,-22 99,-22 62.66667,0 115,21 157,63 42,42 63,94.33333 63,157 0,30.66667 -5.16667,60.66667 -15.5,90 -10.33333,29.33333 -28.5,61.5 -54.5,96.5 -26,35 -61,74.5 -105,118.5 -44,44 -99.66667,96.33333 -167,157 z"
         id="path2149"
         sodipodi:nodetypes="ccssssssscssssssscc"
         style="fill:#f9f9f9;fill-opacity:1" /></g><path
       id="rect3689"
       style="fill:#4d4d4d;stroke-width:2.87987;stop-color:#000000"
       d="m 102.64797,98.997814 h 11.56474 l 0.52917,1.547446 H 102.1188 Z"
       sodipodi:nodetypes="ccccc" /><circle
       style="fill:#ffe680;stroke:#d4aa00;stroke-width:0.419937;stroke-dasharray:none;stroke-opacity:1;stop-color:#000000"
       id="path3823"
       cx="108.43034"
       cy="93.884682"
       r="3.7041652" /><path
       style="fill:#ffe680;stroke:#d4aa00;stroke-width:0.529167;stroke-dasharray:none;stroke-opacity:1;stop-color:#000000"
       d="M 110.01785,89.00679 V 83.006058"
       id="path3879" /><path
       style="fill:#ffe680;stroke:#d4aa00;stroke-width:0.529167;stroke-dasharray:none;stroke-opacity:1;stop-color:#000000"
       d="M 106.84283,89.00679 V 83.006058"
       id="path3879-6" /><path
       style="fill:#ffe680;stroke:#d4aa00;stroke-width:0.529167;stroke-dasharray:none;stroke-opacity:1;stop-color:#000000"
       d="m 108.43034,87.416234 v -5.35005"
       id="path3881" /></g></svg>
