<svg version="1.1" viewBox="0 0 380 380" xmlns="http://www.w3.org/2000/svg">
  <g transform="translate(-36.289 -49.095)">
    <g transform="translate(.32403 40.35)" fill="#99b4ff">
      <g stroke-linecap="round" stroke-linejoin="round" stroke-width="17.86">
        <path d="m120.3 296.68q-14.447 0-26.226-5.3342-11.78-5.3341-20.225-15.558-8.4457-10.224-13.113-25.115-4.4451-15.113-4.4451-34.45 0-16.669 3.7784-34.005 4.0006-17.558 11.113-33.783 7.1122-16.447 17.558-30.671 10.668-14.447 24.004-25.337 13.335-11.113 29.56-17.114 16.447-6.2232 34.894-6.2232 12.224 0 22.892 2.8893 10.668 2.6671 19.114 8.2235t14.002 13.78q1.3335 2.0003 0.66677 3.5561-0.66677 1.3335-2.8893 2.4448-2.0003 0.88903-3.1116 0.22226-0.88902-0.66677-3.1116-3.1116-5.7787-6.6677-13.335-11.113t-16.225-6.4454q-8.4457-2.2226-18.447-2.2226-17.114 0-32.005 5.7787-14.669 5.7787-27.115 16.225-12.446 10.446-22.003 24.004-9.557 13.335-16.447 29.116-6.6677 15.558-10.224 31.783-3.3338 16.225-3.3338 32.005 0 17.114 3.7784 30.671 4.0006 13.335 11.335 22.67 7.3344 9.1125 17.558 14.002 10.224 4.6674 22.67 4.6674 11.335 0 21.781-3.7784 10.446-3.7784 19.781-10.446 9.557-6.8899 18.225-15.558 8.668-8.8902 16.225-18.892 1.5558-1.778 2.6671-2.0003 1.3335-0.22225 2.8893 1.1113 1.778 1.3335 1.778 2.8893 0.22225 1.5558-1.3335 3.5561-11.335 15.113-24.448 26.671-13.113 11.557-27.782 18.225-14.669 6.6677-30.449 6.6677z" style="white-space:pre"/>
        <path d="m264.32 296.24q-12.446 0-20.892-5.3342-8.2235-5.3341-12.669-15.113-4.2229-9.7793-4.2229-22.226 0-12.446 4.2229-25.782 4.2229-13.558 12.446-25.115t20.225-18.67q12.224-7.3344 28.449-7.3344 11.78 0 20.225 5.1119 8.4457 4.8896 12.891 14.224t4.4451 21.781q0 9.557-2.6671 20.225-2.4448 10.668-7.5567 21.114-4.8896 10.224-12.891 18.67-7.779 8.2235-18.225 13.335t-23.781 5.1119zm0.66677-7.779q13.78 0 24.004-6.6677 10.446-6.6677 17.336-17.336 6.8899-10.668 10.446-22.67 3.7784-12.224 3.7784-22.892 0-10.446-3.5561-18.225-3.3338-7.779-9.7793-12.002-6.4454-4.2229-16.225-4.2229-13.335 0-23.781 6.4454-10.224 6.4454-17.336 17.114-6.8899 10.446-10.668 22.448-3.7784 12.002-3.7784 22.892 0 10.224 3.3338 18.447 3.5561 8.0012 10.224 12.446 6.6677 4.2229 16.002 4.2229z" style="white-space:pre"/>
        <path d="m395.64 159.93c-5.2884 6.3402-10.758 11.411-16.414 15.182-6.2232 4.1488-12.594 7.1106-19.113 8.8887-6.3713 1.6299-12.891 2.4453-19.559 2.4453-5.186 0-10.077-0.44496-14.67-1.334-4.5933-0.88903-9.2605-1.926-14.002-3.1113-0.88902-0.29634-1.63-0.22186-2.2226 0.22266-0.74086 0.44451-1.2584 1.0365-1.5547 1.7773s-0.29634 1.4818 0 2.2227c0.29634 0.74085 0.9628 1.2603 2 1.5566 4.4451 1.4817 9.2593 2.6676 14.445 3.5566 5.0378 0.88902 10.373 1.332 16.004 1.332 7.2604 0 14.372-0.88797 21.336-2.666 7.1122-1.9262 13.928-5.1115 20.447-9.5566 3.3103-2.2804 6.5305-4.9649 9.6582-8.0488z" style="white-space:pre"/>
      </g>
      <path d="m56.633 324.4h274.41" color="#000000" style="-inkscape-stroke:none"/>
      <path d="m56.633 320.39v8h274.41v-8z" color="#000000" style="-inkscape-stroke:none"/>
    </g>
  </g>
</svg>
