<svg version="1.1" viewBox="0 0 1000 500" xmlns="http://www.w3.org/2000/svg">
  <g>
    <text x="222.53862" y="-615.60071" fill="#e6e6e6" font-family="Roboto" font-size="84.217px" font-weight="300" stop-color="#000000" stroke-linejoin="round" stroke-width="18.047" text-align="center" text-anchor="middle" style="line-height:1.5;text-decoration-color:#000000;white-space:pre" xml:space="preserve"><tspan x="222.53862" y="-615.60071">Fonts used:</tspan><tspan x="222.53864" y="-489.2746">Playwrite AU SA</tspan><tspan x="222.53862" y="-362.94852">Roboto</tspan></text>
    <rect width="1e3" height="400" fill-opacity="0" stop-color="#000000"/>
    <rect x="38.16" y="10.94" width="375.61" height="375.61" fill-opacity="0" stop-color="#000000"/>
    <g fill="#fff" fill-opacity=".60456" stop-color="#000000" stroke-linecap="round" stroke-linejoin="round" stroke-width="4.7968" style="white-space:pre" aria-label="Fund.Freely.Giving">
      <path d="m267.32 417.19h3.5851v-19.82h19.762v-3.0896h-19.762v-16.468h22.706v-3.0604h-26.291z"/>
      <path d="m319.78 417.19h3.3519v-31.537h-3.4977v22.881c-1.1659 3.5851-4.0223 6.2084-9.5603 6.2084-3.9932 0-7.2868-2.1278-7.2868-8.8607v-20.228h-3.4977v20.17c0 8.6276 4.1972 11.95 10.376 11.95 4.8093 0 8.0738-1.7197 10.027-4.5761z"/>
      <path d="m345.08 388.07c4.5761 0 7.4325 2.0403 7.4325 8.5693v20.549h3.4977v-20.549c0-8.3069-3.7891-11.571-10.056-11.571-4.5178 0-8.1029 2.3609-10.289 5.9169l-0.11659-5.3339h-3.3519v31.537h3.4977v-21.686c1.3699-3.7891 4.5178-7.4325 9.3854-7.4325z"/>
      <path d="m385.77 417.19h3.2645v-44.77h-3.4977v17.634c-2.0694-3.1187-5.2756-4.9842-9.7352-4.9842-7.4908 0-12.154 6.2666-12.154 16.06v0.61209c0 9.4145 4.6636 16.031 12.096 16.031 4.547 0 7.7823-1.8363 9.8517-4.8093zm-18.625-15.448v-0.61209c0-7.3451 2.9147-13.029 9.3271-13.029 5.0425 0 7.6948 2.8856 9.0648 6.0626v14.894c-1.5448 3.2645-4.4012 5.6837-9.1231 5.6837-6.3541 0-9.2688-5.6546-9.2688-13z"/>
      <path d="m397.9 415.06c0 1.3408 0.90356 2.3901 2.4484 2.3901s2.5067-1.0493 2.5067-2.3901c0-1.3699-0.96186-2.4192-2.5067-2.4192s-2.4484 1.0493-2.4484 2.4192z"/>
      <path d="m413.29 417.19h3.5851v-19.82h19.762v-3.0896h-19.762v-16.468h22.706v-3.0604h-26.291z"/>
      <path d="m457.5 388.39c0.87441 0 1.5739 0.0874 2.3318 0.20404l0.11659-3.177c-0.46636-0.17488-1.4574-0.34976-2.3318-0.34976-4.2263 0-7.1411 2.1277-8.8607 5.5088l-0.0874-4.9259h-3.4102v31.537h3.4977v-21.744c1.1659-4.1389 4.0223-7.0536 8.7442-7.0536z"/>
      <path d="m488.22 412.18-2.2152-1.6614c-2.2735 3.0022-5.1008 4.3138-8.8316 4.3138-6.4124 0-10.784-5.5671-10.784-12.533v-0.67038h22.502v-2.1277c0-8.3944-4.4595-14.428-12.475-14.428-7.1994 0-13.524 6.2375-13.524 15.973v1.2533c0 9.0356 5.9169 15.477 14.136 15.477 5.6546 0 9.1231-2.5358 11.193-5.5963zm-11.805-24.134c5.9169 0 8.8607 4.955 8.9773 10.231v0.37892h-18.858c0.75783-6.3832 4.547-10.61 9.8809-10.61z"/>
      <path d="m519.09 412.18-2.2152-1.6614c-2.2735 3.0022-5.1008 4.3138-8.8316 4.3138-6.4124 0-10.784-5.5671-10.784-12.533v-0.67038h22.502v-2.1277c0-8.3944-4.4595-14.428-12.475-14.428-7.1994 0-13.524 6.2375-13.524 15.973v1.2533c0 9.0356 5.9169 15.477 14.136 15.477 5.6546 0 9.1231-2.5358 11.193-5.5963zm-11.805-24.134c5.9169 0 8.8607 4.955 8.9773 10.231v0.37892h-18.858c0.75782-6.3832 4.547-10.61 9.8809-10.61z"/>
      <path d="m530.46 372.42h-3.4685v44.77h3.4685z"/>
      <path d="m549.58 422.26 13.349-36.609h-3.76l-9.1814 26.524-9.8226-26.524h-3.7891l11.892 31.275-1.5448 4.1972c-1.3116 3.76-3.0896 5.7128-6.8787 5.7128-0.32062 0-1.3408-0.0874-1.778-0.20403v2.9147c0.52465 0.17488 1.9237 0.37891 2.6815 0.37891 5.7711 0 7.7532-4.8093 8.8316-7.6657z"/>
      <path d="m564.94 415.06c0 1.3408 0.90356 2.3901 2.4484 2.3901s2.5067-1.0493 2.5067-2.3901c0-1.3699-0.96186-2.4192-2.5067-2.4192s-2.4484 1.0493-2.4484 2.4192z"/>
      <path d="m610.93 397.02h-14.952v3.0604h11.397v10.959c-1.2242 1.4865-4.6927 3.7017-11.163 3.7017-8.1029 0-13.437-6.4707-13.437-16.352v-5.2173c0-9.5603 4.5761-15.944 12.854-15.944 7.6657 0 10.843 4.4012 11.688 9.4728h3.5851c-0.93271-7.1411-5.8294-12.533-15.273-12.533-10.172 0-16.468 7.4034-16.468 19.062v5.159c0 11.863 7.0245 19.383 17.022 19.383 8.919 0 13.262-3.5268 14.748-5.6546z"/>
      <path d="m620.12 376.53c0 1.2825 0.90357 2.3026 2.3901 2.3026 1.5156 0 2.4192-1.0202 2.4192-2.3026 0-1.3116-0.90357-2.3609-2.4192-2.3609-1.4865 0-2.3901 1.0493-2.3901 2.3609zm4.1098 9.1231h-3.4685v31.537h3.4685z"/>
      <path d="m656.75 385.65h-3.6142l-9.5603 26.757-9.6769-26.757h-3.6142l11.834 31.537h2.8273z"/>
      <path d="m662.23 376.53c0 1.2825 0.90356 2.3026 2.3901 2.3026 1.5156 0 2.4192-1.0202 2.4192-2.3026 0-1.3116-0.90356-2.3609-2.4192-2.3609-1.4865 0-2.3901 1.0493-2.3901 2.3609zm4.1098 9.1231h-3.4685v31.537h3.4685z"/>
      <path d="m688.73 388.07c4.5761 0 7.4325 2.0403 7.4325 8.5693v20.549h3.4977v-20.549c0-8.3069-3.7891-11.571-10.056-11.571-4.5178 0-8.1029 2.3609-10.289 5.9169l-0.11659-5.3339h-3.3519v31.537h3.4977v-21.686c1.3699-3.7891 4.5178-7.4325 9.3854-7.4325z"/>
      <path d="m732.68 416.64v-30.983h-3.2645l-0.14574 4.5178c-2.0986-3.2062-5.3048-5.1008-9.8226-5.1008-7.5783 0-12.154 6.2666-12.154 16.06v0.61209c0 9.4145 4.6052 16.031 12.096 16.031 4.4887 0 7.724-1.778 9.7934-4.6927v3.6725c0 6.3249-3.4102 10.056-9.3562 10.056-3.3811 0-6.2958-1.3699-8.8316-4.547l-1.9529 2.1278c2.5358 3.5851 7.0536 5.3922 10.988 5.3922 7.6657 0 12.65-4.9259 12.65-13.145zm-21.89-14.894v-0.61209c0-7.3451 2.9147-13.029 9.3271-13.029 5.1299 0 7.7532 3.0022 9.0648 6.2375v14.574c-1.4865 3.3519-4.3138 5.8294-9.1231 5.8294-6.3541 0-9.2688-5.6546-9.2688-13z"/>
    </g>
  </g>
  <g fill="#99b4ff">
    <g stroke-linecap="round" stroke-linejoin="round" stroke-width="17.86">
      <path d="m120.3 296.68q-14.447 0-26.226-5.3342-11.78-5.3341-20.225-15.558-8.4457-10.224-13.113-25.115-4.4451-15.113-4.4451-34.45 0-16.669 3.7784-34.005 4.0006-17.558 11.113-33.783 7.1122-16.447 17.558-30.671 10.668-14.447 24.004-25.337 13.335-11.113 29.56-17.114 16.447-6.2232 34.894-6.2232 12.224 0 22.892 2.8893 10.668 2.6671 19.114 8.2235t14.002 13.78q1.3335 2.0003 0.66677 3.5561-0.66677 1.3335-2.8893 2.4448-2.0003 0.88903-3.1116 0.22226-0.88902-0.66677-3.1116-3.1116-5.7787-6.6677-13.335-11.113t-16.225-6.4454q-8.4457-2.2226-18.447-2.2226-17.114 0-32.005 5.7787-14.669 5.7787-27.115 16.225-12.446 10.446-22.003 24.004-9.557 13.335-16.447 29.116-6.6677 15.558-10.224 31.783-3.3338 16.225-3.3338 32.005 0 17.114 3.7784 30.671 4.0006 13.335 11.335 22.67 7.3344 9.1125 17.558 14.002 10.224 4.6674 22.67 4.6674 11.335 0 21.781-3.7784 10.446-3.7784 19.781-10.446 9.557-6.8899 18.225-15.558 8.668-8.8902 16.225-18.892 1.5558-1.778 2.6671-2.0003 1.3335-0.22225 2.8893 1.1113 1.778 1.3335 1.778 2.8893 0.22225 1.5558-1.3335 3.5561-11.335 15.113-24.448 26.671-13.113 11.557-27.782 18.225-14.669 6.6677-30.449 6.6677z" style="white-space:pre"/>
      <path d="m264.32 296.24q-12.446 0-20.892-5.3342-8.2235-5.3341-12.669-15.113-4.2229-9.7793-4.2229-22.226 0-12.446 4.2229-25.782 4.2229-13.558 12.446-25.115t20.225-18.67q12.224-7.3344 28.449-7.3344 11.78 0 20.225 5.1119 8.4457 4.8896 12.891 14.224t4.4451 21.781q0 9.557-2.6671 20.225-2.4448 10.668-7.5567 21.114-4.8896 10.224-12.891 18.67-7.779 8.2235-18.225 13.335t-23.781 5.1119zm0.66677-7.779q13.78 0 24.004-6.6677 10.446-6.6677 17.336-17.336 6.8899-10.668 10.446-22.67 3.7784-12.224 3.7784-22.892 0-10.446-3.5561-18.225-3.3338-7.779-9.7793-12.002-6.4454-4.2229-16.225-4.2229-13.335 0-23.781 6.4454-10.224 6.4454-17.336 17.114-6.8899 10.446-10.668 22.448-3.7784 12.002-3.7784 22.892 0 10.224 3.3338 18.447 3.5561 8.0012 10.224 12.446 6.6677 4.2229 16.002 4.2229z" style="white-space:pre"/>
      <path d="m395.64 159.93c-5.2884 6.3402-10.758 11.411-16.414 15.182-6.2232 4.1488-12.594 7.1106-19.113 8.8887-6.3713 1.6299-12.891 2.4453-19.559 2.4453-5.186 0-10.077-0.44496-14.67-1.334-4.5933-0.88903-9.2605-1.926-14.002-3.1113-0.88902-0.29634-1.63-0.22186-2.2226 0.22266-0.74086 0.44451-1.2584 1.0365-1.5547 1.7773s-0.29634 1.4818 0 2.2227c0.29634 0.74085 0.9628 1.2603 2 1.5566 4.4451 1.4817 9.2593 2.6676 14.445 3.5566 5.0378 0.88902 10.373 1.332 16.004 1.332 7.2604 0 14.372-0.88797 21.336-2.666 7.1122-1.9262 13.928-5.1115 20.447-9.5566 3.3103-2.2804 6.5305-4.9649 9.6582-8.0488z" style="white-space:pre"/>
    </g>
    <path d="m56.633 324.4h274.41" color="#000000" style="-inkscape-stroke:none"/>
    <path d="m56.633 320.39v8h274.41v-8z" color="#000000" style="-inkscape-stroke:none"/>
  </g>
  <g>
    <g fill="#e6e6e6" stroke-linecap="round" stroke-linejoin="round" stroke-width="17.86">
      <path d="m375.67 295.8q-4.4451 0-7.5567-1.5558-3.1116-1.5558-4.8896-4.4451-1.778-3.1116-1.778-8.0012t2.0003-11.78l57.787-197.59q0.44451-1.778 1.3335-2.4448 1.1113-0.88902 3.3338-0.88902t3.3338 0.88902 0.44451 2.8893l-57.564 196.7q-2.6671 9.3348-1.778 14.002 0.88903 4.4451 7.779 4.4451 2.0003 0 2.6671 1.3335 0.88903 1.1113 0.22226 2.6671-0.44451 1.3335-1.778 2.4448-1.1113 1.3335-3.5561 1.3335z" style="white-space:pre"/>
      <path d="m375.89 295.8q-2.0003 0-2.6671-1.3335-0.88902-1.1113-0.44451-2.4448 0.22225-1.5558 1.778-2.6671 1.3335-1.3335 4.0006-1.3335 5.5564 0 12.891-4.6674t15.558-13.113q8.0012-8.4457 16.225-20.225t15.558-25.782q0.66677-1.5558 2.0003-1.5558 1.3335 0 2.2226 1.1113 1.1113 1.1113 0.44452 2.6671-6.8899 14.447-15.336 27.115-8.2235 12.446-16.891 22.003-8.8902 9.557-17.78 14.891t-17.558 5.3341z" style="white-space:pre"/>
      <path d="m455.68 295.8q-7.779 0-13.78-4.2229-6.0009-4.2229-9.1125-12.224-3.1116-8.0012-3.1116-18.67 0-10.002 3.1116-21.337 3.1116-11.335 8.8902-22.448 6.0009-11.113 14.669-20.225 8.668-9.3348 19.781-14.669 11.113-5.3341 24.893-5.3341 7.779 0 16.002 2.6671 8.2235 2.4448 15.336 7.3344l-2.2226 6.8899q-9.1125-5.5564-16.669-7.3344-7.3344-1.778-13.78-1.778-11.113 0-20.67 4.6674-9.557 4.6674-17.114 12.669-7.5567 8.0012-12.891 18.003-5.3342 10.002-8.2235 20.67-2.6671 10.446-2.6671 20.003 0 8.0012 2.0003 14.224 2.0003 6.2232 6.2232 9.7793 4.2229 3.5561 10.446 3.5561 9.557 0 20.892-9.3348 11.335-9.3348 23.781-28.227 12.669-19.114 24.448-48.007l2.4448 9.1125q-12.669 29.338-25.115 48.007-12.446 18.67-24.448 27.56-11.78 8.668-23.115 8.668zm61.565 0q-4.0006 0-6.8899-1.5558-2.8893-1.3335-4.4451-4.2229-1.5558-3.1116-1.5558-8.0012 0.22225-5.1119 2.0003-11.78l25.782-89.347q0.44451-1.778 1.5558-2.4448 1.3335-0.88903 3.3338-0.88903 2.4448 0 3.3338 1.3335 0.88902 1.1113 0.22226 3.1116l-25.782 88.013q-2.6671 9.3348-1.778 13.78 0.88903 4.2229 6.6677 4.2229 1.778 0 2.4448 1.3335 0.66677 1.1113 0.44451 2.6671-0.22226 1.3335-1.778 2.4448-1.3335 1.3335-3.5561 1.3335z" style="white-space:pre"/>
      <path d="m517.02 295.8q-2.0003 0-2.6671-1.3335-0.88902-1.1113-0.44451-2.4448 0.22225-1.5558 1.778-2.6671 1.3335-1.3335 4.0006-1.3335 5.5564 0 13.113-5.1119 7.3344-5.3342 17.114-16.891 9.7793-11.78 22.67-30.671 12.891-19.114 29.338-47.118 0.66677-1.778 2.2226-1.5558 1.5558 0 2.4448 1.3335 1.1113 1.3335 0 3.1116-15.78 27.782-28.893 47.785-13.113 19.781-23.559 32.449-10.668 12.446-19.781 18.447t-17.336 6.0009z" style="white-space:pre"/>
      <path d="m575.7 295.13q-3.1116 0-3.7784-1.5558-0.44452-1.3335 0.22225-3.1116l63.121-218.26q0.44452-2.0003 1.5558-2.6671t3.3338-0.66677 3.3338 0.88902q1.1113 0.66677 0.44451 2.4448l-46.896 161.36q10.668-20.003 20.67-32.449t19.781-18.447q9.7793-6.0009 19.336-6.0009 11.78 0 18.892 9.557 7.1122 9.557 7.1122 25.782 0 10.446-3.1116 22.003-3.1116 11.335-9.1125 22.448-5.7787 10.891-14.669 20.003-8.668 8.8902-20.003 14.224-11.113 5.1119-24.448 5.1119-7.1122 0-15.113-2.2226-7.779-2.2226-14.447-7.3344l-1.778 5.5564q-0.44451 1.5558-1.5558 2.4448-0.88903 0.88903-2.8893 0.88903zm8.2235-15.558q8.4457 5.3341 15.336 6.8899 7.1122 1.5558 13.335 1.5558 11.113 0 20.67-4.6674t17.114-12.669q7.5567-8.2235 12.891-18.003 5.3341-10.002 8.0012-20.448 2.8893-10.668 2.8893-20.003 0-8.2235-2.0003-14.447-1.778-6.2232-6.2232-9.7793-4.2229-3.5561-10.446-3.5561-9.3348 0-20.67 9.1125-11.335 9.1125-23.337 27.56-12.002 18.447-24.004 46.674z" style="white-space:pre"/>
      <path d="m747.28 296.24q-12.446 0-20.892-5.3342-8.2235-5.3341-12.669-15.113-4.2229-9.7793-4.2229-22.226 0-12.446 4.2229-25.782 4.2229-13.558 12.446-25.115t20.225-18.67q12.224-7.3344 28.449-7.3344 11.78 0 20.225 5.1119 8.4457 4.8896 12.891 14.224t4.4451 21.781q0 9.557-2.6671 20.225-2.4448 10.668-7.5567 21.114-4.8896 10.224-12.891 18.67-7.779 8.2235-18.225 13.335t-23.781 5.1119zm0.66676-7.779q13.78 0 24.004-6.6677 10.446-6.6677 17.336-17.336t10.446-22.67q3.7784-12.224 3.7784-22.892 0-10.446-3.5561-18.225-3.3338-7.779-9.7793-12.002-6.4454-4.2229-16.225-4.2229-13.335 0-23.781 6.4454-10.224 6.4454-17.336 17.114-6.8899 10.446-10.668 22.448-3.7784 12.002-3.7784 22.892 0 10.224 3.3338 18.447 3.5561 8.0012 10.224 12.446 6.6677 4.2229 16.002 4.2229z" style="white-space:pre"/>
      <path d="m831.96 198q-10.002 0-20.225-2.0003-10.224-2.2226-20.225-8.4457-1.1113-0.88902-1.1113-2.0003-0.22225-1.1113 0.66677-2.2226 0.66677-1.1113 2.0003-1.3335 1.1113-0.44451 2.4448 0.22226 7.5567 5.1119 17.558 7.1122 10.002 1.778 21.559 1.778 6.2232 0 13.335-1.1113 7.3344-1.3335 14.224-3.7784 6.8899-2.6671 11.78-6.2232 1.3335-1.3335 2.4448-1.1113t1.5558 1.5558q0.66676 1.1113 0.22225 2.6671-0.22225 1.5558-1.778 2.6671-6.0009 4.6674-14.002 7.3344-7.779 2.6671-15.78 3.7784t-14.669 1.1113z" style="white-space:pre"/>
      <path d="m843.52 295.35q-2.4448 0-3.1116-0.88902-0.44451-0.66677 0-2.4448l32.227-111.13q0.66677-1.778 1.5558-2.4448 1.1113-0.88903 3.1116-0.88903 2.2226 0 3.1116 0.88903 1.1113 0.88902 0.44451 2.8893l-16.891 57.564q9.1125-19.559 17.336-31.783 8.2235-12.224 15.558-18.892 7.5567-6.6677 14.002-9.1125 6.6677-2.4448 12.669-2.4448 6.6677 0 12.002 2.8893 5.5564 2.8893 7.779 6.8899 0.66677 0.88903 0.22225 2.0003-0.44451 1.1113-1.5558 2.2226-1.5558 1.1113-2.8893 1.3335-1.1113 0-2.2226-1.1113-2.0003-2.2226-5.7786-4.4451t-9.3348-2.2226q-6.8899 0-14.224 4.2229-7.3344 4.0006-15.558 14.447t-18.225 29.338q-9.7793 18.67-21.781 48.007l-3.3338 11.78q-0.66677 1.778-2.0003 2.4448-1.1113 0.88902-3.1116 0.88902z" style="white-space:pre"/>
    </g>
  </g>
</svg>
