<?xml version="1.0" encoding="UTF-8"?>
<svg width="127px" height="60px" viewBox="0 0 127 60" version="1.1" xmlns="http://www.w3.org/2000/svg" xmlns:xlink="http://www.w3.org/1999/xlink">
    <title>Brands/PayID</title>
    <g id="Brands/PayID" stroke="none" stroke-width="1" fill="none" fill-rule="evenodd">
        <g id="Group-9" fill="#000000">
            <path d="M8.59589652,29.6583835 C9.42372881,29.6583835 10.2158787,29.596511 10.9652096,29.4727661 C11.7145406,29.3490211 12.3853702,29.1306476 12.9741302,28.8176456 C13.5628903,28.5046436 14.0303301,28.0751757 14.3800178,27.529242 C14.7261374,26.9833082 14.9009813,26.2735944 14.9009813,25.4001004 C14.9009813,24.5266064 14.7261374,23.8642068 14.3800178,23.3328313 C14.0303301,22.8014558 13.5700268,22.3829066 12.9955397,22.0844629 C12.4210526,21.7823795 11.764496,21.5858434 11.0258698,21.4912149 C10.2908118,21.3965863 9.53434434,21.3492721 8.75646744,21.3492721 L5.06333631,21.3492721 L5.06333631,29.6656627 L8.59589652,29.6656627 L8.59589652,29.6583835 Z M0,17 L9.27743087,17 C10.911686,17 12.381802,17.1492219 13.6949153,17.4513052 C15.0044603,17.7533886 16.132025,18.2447289 17.0669045,18.9253263 C18.0017841,19.6095633 18.7261374,20.4830572 19.2363961,21.5458082 C19.7430865,22.6121988 20,23.8933233 20,25.3964608 C20,27.0087851 19.7038359,28.3590612 19.1150758,29.4509287 C18.5263158,30.5427962 17.7305977,31.4235693 16.7243533,32.093248 C15.7216771,32.7629267 14.5477252,33.246988 13.2096343,33.5454317 C11.8715433,33.8475151 10.4513827,33.9967369 8.95272079,33.9967369 L5.05619982,33.9967369 L5.05619982,46 L0,46 L0,17 Z" id="Fill-1"></path>
            <path d="M34.3820292,36.4109589 L33.2869722,36.4109589 C32.501701,36.4109589 31.6768061,36.4478398 30.8122874,36.5142255 C29.9477687,36.5842993 29.151691,36.7355111 28.4204523,36.971549 C27.6928157,37.2075869 27.0840504,37.5395153 26.5977587,37.967334 C26.1114669,38.3951528 25.8665199,38.9852476 25.8665199,39.7302424 C25.8665199,40.2023182 25.9673804,40.5969442 26.1691015,40.9141201 C26.3708225,41.2312961 26.6337803,41.4894626 26.9615769,41.6812434 C27.2857715,41.8767123 27.6495898,42.0131718 28.056634,42.0943098 C28.4636782,42.1791359 28.8671203,42.219705 29.2741645,42.219705 C30.9491695,42.219705 32.2207324,41.7623815 33.0852512,40.8514226 C33.9497699,39.9367756 34.3820292,38.6938883 34.3820292,37.1153846 C34.3820292,37.1153846 34.3820292,36.4109589 34.3820292,36.4109589 L34.3820292,36.4109589 Z M34.4612768,42.9683878 L34.3388033,42.9683878 C33.8525115,43.85353 33.0672403,44.5800843 31.986592,45.1480506 C30.9059436,45.7160169 29.6740044,46 28.2979788,46 C27.5127076,46 26.695017,45.8967334 25.8449069,45.6902002 C24.9947969,45.483667 24.2095257,45.1369863 23.4926956,44.6538462 C22.7758655,44.170706 22.1815089,43.532666 21.7096258,42.7434141 C21.2377426,41.9541623 21,40.9805058 21,39.8187566 C21,38.325079 21.4106464,37.1338251 22.2355413,36.2486828 C23.0604363,35.3635406 24.1194717,34.6849315 25.4198519,34.2128556 C26.71663,33.7407798 28.1574945,33.43098 29.7388433,33.2797682 C31.3201921,33.1285564 32.8655193,33.0511064 34.3820292,33.0511064 L34.3820292,32.5532139 C34.3820292,31.3066386 33.9425655,30.3883035 33.0636382,29.7945205 C32.1847108,29.2007376 31.1364819,28.9020021 29.9225535,28.9020021 C28.8959376,28.9020021 27.9089454,29.1232877 26.9615769,29.5658588 C26.0142085,30.0084299 25.2325395,30.5468915 24.6093656,31.1849315 L22.095057,28.1533193 C23.2045227,27.1022129 24.4796878,26.312961 25.9277567,25.7892518 C27.3722233,25.2618546 28.838303,25 30.3259956,25 C32.055033,25 33.4814889,25.2471022 34.6017611,25.7486828 C35.7220332,26.2465753 36.6081649,26.8956797 37.2565539,27.6996839 C37.904943,28.5036881 38.3588153,29.3998946 38.6145687,30.3993678 C38.8703222,31.3951528 39,32.3909378 39,33.3867229 L39,45.5057956 L34.4612768,45.5057956 L34.4612768,42.9720759 L34.4612768,42.9683878 Z" id="Fill-3"></path>
            <path d="M41,26.0037023 L46.4445791,26.0037023 L51.9291652,40.5464643 L52.0128161,40.5464643 L56.8827503,26.0037023 L62,26.0037023 L52.7074818,50.2947057 C52.3510565,51.2128841 51.9728091,52.0236949 51.5618289,52.7308404 C51.1508486,53.4379859 50.6598545,54.0377638 50.0888466,54.5227693 C49.5142016,55.0077749 48.8413578,55.3780081 48.0630412,55.6260644 C47.2847246,55.8741207 46.3500173,56 45.2589193,56 C44.847939,56 44.4333218,55.977786 44.0114306,55.9370603 C43.5895393,55.8963347 43.1567371,55.8185857 42.7239349,55.7075157 L43.1312781,51.3757867 C43.4586076,51.4868567 43.778663,51.5646057 44.0914444,51.6053314 C44.4042258,51.646057 44.6988223,51.668271 44.9715968,51.668271 C45.4880499,51.668271 45.9244891,51.6053314 46.2809144,51.4794521 C46.6373398,51.3535728 46.9355733,51.1610515 47.1828888,50.8944835 C47.4265674,50.6316179 47.648424,50.3021103 47.8375476,49.9170678 C48.0266713,49.5283228 48.2339799,49.0692336 48.4521995,48.5435024 L49.4341877,46 L41.003637,26 L41,26.0037023 Z" id="Fill-5"></path>
            <path d="M113.905977,33.5734678 C113.698251,34.9474579 113.377551,36.1829557 112.969388,37.1378242 C110.341837,43.3080241 104.215743,46.4386807 94.766035,46.4386807 L81.0123907,46.4386807 L81.0123907,25.0270303 L84.8899417,25.0270303 L84.8899417,42.5572496 L94.766035,42.5572496 C102.513848,42.5572496 107.440962,40.2211019 109.401603,35.6180526 C109.631195,35.0823058 109.824344,34.3752657 109.973761,33.5698232 L106.759475,33.5698232 L112.29519,26.6196926 L117.841837,33.5807568 L113.905977,33.5807568 L113.905977,33.5734678 Z M80.1887755,17.0600741 C80.1887755,15.4601227 81.4861516,14.1626678 83.0860058,14.1626678 C84.6858601,14.1626678 85.9832362,15.4601227 85.9832362,17.0600741 C85.9832362,18.6600255 84.6858601,19.9574804 83.0860058,19.9574804 C81.4861516,19.9574804 80.1887755,18.6600255 80.1887755,17.0600741 L80.1887755,17.0600741 Z M92.4336735,14.6000121 L94.1392128,14.3922736 C94.2813411,14.3740509 97.71793,13.9731519 101.693878,14.8077507 C107.193149,15.9630687 111.088921,18.9187876 112.958455,23.3578327 L109.383382,24.8630262 C106.836006,18.8167406 99.6239067,18.1315678 96.3112245,18.1570795 L96.3112245,36.1501549 L92.4336735,36.1501549 L92.4336735,14.6000121 Z M113.43586,0 L80.5641399,0 C73.0714286,0 67,6.0754419 67,13.5649639 L67,46.4350361 C67,53.9282026 73.0750729,60 80.5641399,60 L113.43586,60 C120.928571,60 127,53.9245581 127,46.4350361 L127,13.5649639 C127,6.07179736 120.924927,0 113.43586,0 L113.43586,0 Z" id="Fill-7"></path>
        </g>
    </g>
</svg>